<svg xmlns="http://www.w3.org/2000/svg" xmlns:xlink="http://www.w3.org/1999/xlink" width="113" height="113" viewBox="0 0 113 113">
  <defs>
    <filter id="Trazado_982547" x="0" y="0" width="113" height="113" filterUnits="userSpaceOnUse">
      <feOffset dy="3" input="SourceAlpha"/>
      <feGaussianBlur stdDeviation="3" result="blur"/>
      <feFlood flood-opacity="0.161"/>
      <feComposite operator="in" in2="blur"/>
      <feComposite in="SourceGraphic"/>
    </filter>
  </defs>
  <g id="Grupo_1177986" data-name="Grupo 1177986" transform="translate(-9668 -1372.623)">
    <g id="Grupo_1177635" data-name="Grupo 1177635" transform="translate(8556 209)">
      <g id="Grupo_1177337" data-name="Grupo 1177337" transform="translate(318.51 -325.812)">
        <g id="Grupo_1176922" data-name="Grupo 1176922" transform="translate(802.49 1495.435)">
          <g id="Grupo_1172322" data-name="Grupo 1172322" transform="translate(0 0)">
            <g id="Grupo_1164700" data-name="Grupo 1164700">
              <g id="Grupo_1160931" data-name="Grupo 1160931">
                <g id="Grupo_1160749" data-name="Grupo 1160749">
                  <g id="Grupo_1158891" data-name="Grupo 1158891">
                    <g id="Grupo_1157406" data-name="Grupo 1157406">
                      <g id="Grupo_1155793" data-name="Grupo 1155793">
                        <g id="Grupo_1154704" data-name="Grupo 1154704">
                          <g id="Grupo_1150790" data-name="Grupo 1150790">
                            <g id="Grupo_1154214" data-name="Grupo 1154214">
                              <g id="Grupo_1152583" data-name="Grupo 1152583">
                                <g id="Grupo_1146973" data-name="Grupo 1146973">
                                  <g id="Grupo_1146954" data-name="Grupo 1146954">
                                    <g transform="matrix(1, 0, 0, 1, -9, -6)" filter="url(#Trazado_982547)">
                                      <g id="Trazado_982547-2" data-name="Trazado 982547" transform="translate(9 6)" fill="#f2f7e5">
                                        <path d="M 47.5000114440918 93.49987030029297 C 41.28938293457031 93.49987030029297 35.26534652709961 92.28384399414062 29.5951976776123 89.88558959960938 C 24.11773109436035 87.56881713867188 19.19814491271973 84.25183868408203 14.97310447692871 80.02680206298828 C 10.74805164337158 75.80176544189453 7.43107795715332 70.88218688964844 5.114304542541504 65.40472412109375 C 2.716038227081299 59.73458862304688 1.500011444091797 53.71054840087891 1.500011444091797 47.49993515014648 C 1.500011444091797 41.28932189941406 2.716038227081299 35.26528167724609 5.114304542541504 29.59514808654785 C 7.43107795715332 24.1176815032959 10.74805164337158 19.1981086730957 14.97310447692871 14.97306823730469 C 19.19814491271973 10.74802875518799 24.11773109436035 7.431055068969727 29.5951976776123 5.11428165435791 C 35.26534652709961 2.716028451919556 41.28938293457031 1.500001788139343 47.5000114440918 1.500001788139343 C 53.71063995361328 1.500001788139343 59.73467636108398 2.716028451919556 65.40482330322266 5.11428165435791 C 70.88229370117188 7.431055068969727 75.8018798828125 10.74802875518799 80.02691650390625 14.97306823730469 C 84.25196838378906 19.1981086730957 87.56894683837891 24.1176815032959 89.88571929931641 29.59514808654785 C 92.28398132324219 35.26528167724609 93.50001525878906 41.28932189941406 93.50001525878906 47.49993515014648 C 93.50001525878906 53.71054840087891 92.28398132324219 59.73458862304688 89.88571929931641 65.40472412109375 C 87.56894683837891 70.88218688964844 84.25196838378906 75.80176544189453 80.02691650390625 80.02680206298828 C 75.8018798828125 84.25183868408203 70.88229370117188 87.56881713867188 65.40482330322266 89.88558959960938 C 59.73467636108398 92.28384399414062 53.71063995361328 93.49987030029297 47.5000114440918 93.49987030029297 Z" stroke="none"/>
                                        <path d="M 47.5000114440918 3 C 41.49122619628906 3 35.66378021240234 4.1761474609375 30.17951965332031 6.495796203613281 C 24.880859375 8.7369384765625 20.12153625488281 11.94596862792969 16.03376770019531 16.03373718261719 C 11.94598388671875 20.12149047851562 8.736968994140625 24.88081359863281 6.495811462402344 30.17947387695312 C 4.176162719726562 35.66371917724609 3.000007629394531 41.49116516113281 3.000007629394531 47.49993515014648 C 3.000007629394531 53.50870513916016 4.176162719726562 59.33615112304688 6.495811462402344 64.82039642333984 C 8.736968994140625 70.11905670166016 11.94598388671875 74.87837982177734 16.03376770019531 78.96613311767578 C 20.12153625488281 83.05390167236328 24.880859375 86.26293182373047 30.17951965332031 88.50407409667969 C 35.66378021240234 90.82372283935547 41.49122619628906 91.99987030029297 47.5000114440918 91.99987030029297 C 53.50879669189453 91.99987030029297 59.33624267578125 90.82372283935547 64.82050323486328 88.50407409667969 C 70.11916351318359 86.26293182373047 74.87848663330078 83.05390167236328 78.96625518798828 78.96613311767578 C 83.05403900146484 74.87837982177734 86.2630615234375 70.11905670166016 88.50421142578125 64.82039642333984 C 90.82386016845703 59.33615112304688 92.00001525878906 53.50870513916016 92.00001525878906 47.49993515014648 C 92.00001525878906 41.49116516113281 90.82386016845703 35.66371917724609 88.50421142578125 30.17947387695312 C 86.2630615234375 24.88081359863281 83.05403900146484 20.12149047851562 78.96625518798828 16.03373718261719 C 74.87848663330078 11.94596862792969 70.11916351318359 8.7369384765625 64.82050323486328 6.495796203613281 C 59.33624267578125 4.1761474609375 53.50879669189453 3 47.5000114440918 3 M 47.5000114440918 0 C 73.73353576660156 0 95.00001525878906 21.26644134521484 95.00001525878906 47.49993515014648 C 95.00001525878906 73.73342895507812 73.73353576660156 94.99987030029297 47.5000114440918 94.99987030029297 C 21.26648712158203 94.99987030029297 7.62939453125e-06 73.73342895507812 7.62939453125e-06 47.49993515014648 C 7.62939453125e-06 21.26644134521484 21.26648712158203 0 47.5000114440918 0 Z" stroke="none" fill="#86b60c"/>
                                      </g>
                                    </g>
                                  </g>
                                </g>
                              </g>
                            </g>
                          </g>
                        </g>
                      </g>
                    </g>
                  </g>
                </g>
              </g>
            </g>
          </g>
        </g>
      </g>
    </g>
    <g id="target" transform="translate(9692.997 1394.113)">
      <path id="Trazado_1040340" data-name="Trazado 1040340" d="M31,42V59a2,2,0,0,1-2,2H5a2,2,0,0,1-2-2V42a8.012,8.012,0,0,1,7-8H24a8.012,8.012,0,0,1,7,8Z" fill="#57a4ff"/>
      <path id="Trazado_1040341" data-name="Trazado 1040341" d="M31,42V59a2.006,2.006,0,0,1-2,2H5a2.006,2.006,0,0,1-2-2V57H15A12,12,0,0,0,27,45V38a8.092,8.092,0,0,0-.73-3.37A8.06,8.06,0,0,1,31,42Z" fill="#2488ff"/>
      <circle id="Elipse_12295" data-name="Elipse 12295" cx="14" cy="14" r="14" transform="translate(33 3)" fill="#ff7956"/>
      <path id="Trazado_1040342" data-name="Trazado 1040342" d="M61,17a13.994,13.994,0,0,1-25.69,7.69A13.99,13.99,0,0,0,54.69,5.31,13.969,13.969,0,0,1,61,17Z" fill="#ff6243"/>
      <path id="Trazado_1040343" data-name="Trazado 1040343" d="M56,50l-1.98.49,1.05,1.75-2.83,2.83-1.75-1.05L50,56H46l-.49-1.98-1.75,1.05-2.83-2.83,1.05-1.75L40,50V46l1.98-.49-1.05-1.75,2.83-2.83,1.75,1.05L46,40h4l.49,1.98,1.75-1.05,2.83,2.83-1.05,1.75L56,46Z" fill="#c0ab91"/>
      <path id="Trazado_1040344" data-name="Trazado 1040344" d="M56,50l-1.98.49,1.05,1.75-2.83,2.83-1.75-1.05L50,56H46l-.49-1.98-1.75,1.05-1.33-1.33A13.938,13.938,0,0,0,50,49a13.783,13.783,0,0,0,2.95-7.36l2.12,2.12-1.05,1.75L56,46Z" fill="#b39a7c"/>
      <circle id="Elipse_12296" data-name="Elipse 12296" cx="10" cy="10" r="10" transform="translate(37 7)" fill="#ffde55"/>
      <path id="Trazado_1040345" data-name="Trazado 1040345" d="M57,17a10,10,0,0,1-18.78,4.78A9.9,9.9,0,0,0,43,23,10.016,10.016,0,0,0,53,13a9.9,9.9,0,0,0-1.22-4.78A10.015,10.015,0,0,1,57,17Z" fill="#ffcd00"/>
      <circle id="Elipse_12297" data-name="Elipse 12297" cx="3" cy="3" r="3" transform="translate(45 45)" fill="#ffde55"/>
      <path id="Trazado_1040346" data-name="Trazado 1040346" d="M31,53v6a2.006,2.006,0,0,1-2,2H25V53Z" fill="#ffdaaa"/>
      <path id="Trazado_1040347" data-name="Trazado 1040347" d="M26,22v1a1,1,0,0,1-1,1H23V21h2A1,1,0,0,1,26,22Z" fill="#c0ab91"/>
      <path id="Trazado_1040348" data-name="Trazado 1040348" d="M26,17v1l-3,3V18l-4-2-8,2v3L8,18V17a6,6,0,0,1,6-6h6A6,6,0,0,1,26,17Z" fill="#ffde55"/>
      <path id="Trazado_1040349" data-name="Trazado 1040349" d="M24,34l-5,7H15l-5-7,3-1,1,1,3,3,3-3,1-1Z" fill="#ff7956"/>
      <path id="Trazado_1040350" data-name="Trazado 1040350" d="M23,21v3a6,6,0,0,1-12,0V18l8-2,4,2Z" fill="#ffdaaa"/>
      <path id="Trazado_1040351" data-name="Trazado 1040351" d="M19.67,45,21,53l-4,4-4-4,1.33-8Z" fill="#ff7956"/>
      <path id="Trazado_1040352" data-name="Trazado 1040352" d="M19.26,29.56,20,34l-3,3-3-3,.74-4.44a6.024,6.024,0,0,0,4.52,0Z" fill="#ffdaaa"/>
      <path id="Trazado_1040353" data-name="Trazado 1040353" d="M26,17v1l-3,3V19l1-1V17a6,6,0,0,0-6-6h2A6,6,0,0,1,26,17Z" fill="#ffcd00"/>
      <path id="Trazado_1040354" data-name="Trazado 1040354" d="M23,18v6a5.994,5.994,0,0,1-6,6,5.47,5.47,0,0,1-1-.09,5.869,5.869,0,0,0,1.26-.35A6.009,6.009,0,0,0,21,24V18l-3.33-1.67L19,16Z" fill="#ffc477"/>
      <path id="Trazado_1040355" data-name="Trazado 1040355" d="M20,34l-3,3-1-1,2-2-.67-4.02a5.893,5.893,0,0,0,1.93-.42Z" fill="#ffc477"/>
      <path id="Trazado_1040356" data-name="Trazado 1040356" d="M19,41l.67,4H14.33L15,41Z" fill="#e0e0e2"/>
      <path id="Trazado_1040357" data-name="Trazado 1040357" d="M24,34l-5,7H17l5-7-1.5-.5L21,33Z" fill="#ff6243"/>
      <path id="Trazado_1040358" data-name="Trazado 1040358" d="M21,53l-4,4-1-1,3-3-1.33-8h2Z" fill="#ff6243"/>
      <path id="Trazado_1040359" data-name="Trazado 1040359" d="M19.67,45h-2L17,41h2Z" fill="#c6c5ca"/>
      <path id="Trazado_1040360" data-name="Trazado 1040360" d="M11,21v3H9a1,1,0,0,1-1-1V22a1,1,0,0,1,1-1Z" fill="#c0ab91"/>
      <path id="Trazado_1040361" data-name="Trazado 1040361" d="M9,53v8H5a2.006,2.006,0,0,1-2-2V53Z" fill="#ffdaaa"/>
      <path id="Trazado_1040362" data-name="Trazado 1040362" d="M31,53v6a2.006,2.006,0,0,1-2,2H27a2.006,2.006,0,0,0,2-2V53Z" fill="#ffc477"/>
      <path id="Trazado_1040363" data-name="Trazado 1040363" d="M7,53H9v8H7Z" fill="#ffc477"/>
      <path id="Trazado_1040364" data-name="Trazado 1040364" d="M48,52a4,4,0,1,0-4-4A4,4,0,0,0,48,52Zm0-6a2,2,0,1,1-2,2A2,2,0,0,1,48,46Z"/>
      <path id="Trazado_1040365" data-name="Trazado 1040365" d="M56.24,45.03l-.67-.17.36-.59a1,1,0,0,0-.15-1.22l-2.83-2.83a1.014,1.014,0,0,0-1.22-.15l-.59.36-.17-.67A1,1,0,0,0,50,39H46a1,1,0,0,0-.97.76l-.17.67-.59-.36a1.014,1.014,0,0,0-1.22.15l-2.83,2.83a1,1,0,0,0-.15,1.22l.36.59-.67.17A1,1,0,0,0,39,46v4a1,1,0,0,0,.76.97l.67.17-.36.59a1,1,0,0,0,.15,1.22l2.83,2.83a1.012,1.012,0,0,0,1.22.15l.59-.36.17.67A1,1,0,0,0,46,57h4a1,1,0,0,0,.97-.76l.17-.67.59.36a1.014,1.014,0,0,0,1.22-.15l2.83-2.83a1,1,0,0,0,.15-1.22l-.36-.59.67-.17A1,1,0,0,0,57,50V46a1,1,0,0,0-.76-.97ZM55,49.22l-1.22.3a1.007,1.007,0,0,0-.68.59.989.989,0,0,0,.07.9l.64,1.08-1.72,1.72-1.08-.65a1.019,1.019,0,0,0-.9-.06,1.007,1.007,0,0,0-.59.68L49.22,55H46.78l-.3-1.22a1.007,1.007,0,0,0-.59-.68,1.019,1.019,0,0,0-.9.06l-1.08.65-1.72-1.72.64-1.08a.989.989,0,0,0,.07-.9,1.007,1.007,0,0,0-.68-.59L41,49.22V46.78l1.22-.3a1.007,1.007,0,0,0,.68-.59.989.989,0,0,0-.07-.9l-.64-1.08,1.72-1.72,1.08.65a1.019,1.019,0,0,0,.9.06,1.007,1.007,0,0,0,.59-.68l.3-1.22h2.44l.3,1.22a1.007,1.007,0,0,0,.59.68,1.019,1.019,0,0,0,.9-.06l1.08-.65,1.72,1.72-.64,1.08a.989.989,0,0,0-.07.9,1.007,1.007,0,0,0,.68.59l1.22.3Z"/>
      <path id="Trazado_1040366" data-name="Trazado 1040366" d="M54,35.35V30.26A14.99,14.99,0,1,0,47,32a14.807,14.807,0,0,0,5-.88V36a.987.987,0,0,0,.62.92A12,12,0,1,1,36,48a1,1,0,0,0-1-1H32V42a9,9,0,0,0-7.75-8.97l-2.93-.98a.97.97,0,0,0-.63.01l-.32-1.93A7.023,7.023,0,0,0,23.92,25H25a2.006,2.006,0,0,0,2-2V22a2,2,0,0,0-1.62-1.96l1.33-1.33A1.033,1.033,0,0,0,27,18V17a7.008,7.008,0,0,0-7-7H14a7.008,7.008,0,0,0-7,7v1a1.033,1.033,0,0,0,.29.71l1.33,1.33A2,2,0,0,0,7,22v1a2.006,2.006,0,0,0,2,2h1.08a7.023,7.023,0,0,0,3.55,5.13l-.32,1.93a.97.97,0,0,0-.63-.01l-2.93.98A9,9,0,0,0,2,42V61a1,1,0,0,0,1,1H31a1,1,0,0,0,1-1V49h2.04A14,14,0,1,0,54,35.35ZM48,4.05A13.008,13.008,0,0,1,59.95,16h-2A11.013,11.013,0,0,0,48,6.05Zm-2,0v2A11.013,11.013,0,0,0,36.05,16h-2A13.008,13.008,0,0,1,46,4.05Zm0,25.9A13.008,13.008,0,0,1,34.05,18h2A11.013,11.013,0,0,0,46,27.95ZM38,17a9,9,0,1,1,9,9,9,9,0,0,1-9-9ZM48,29.95v-2A11.013,11.013,0,0,0,57.95,18h2A13.008,13.008,0,0,1,48,29.95ZM25,23H24V22h1ZM10,23H9V22h1Zm0-5v.59l-1-1V17a5,5,0,0,1,5-5h6a5,5,0,0,1,5,5v.59l-1,1V18a.977.977,0,0,0-.55-.89l-4-2a.978.978,0,0,0-.69-.08l-8,2A1,1,0,0,0,10,18Zm2,6V18.78l6.88-1.72L22,18.62V24a5,5,0,0,1-10,0Zm6.93,9.66L17,35.59l-1.93-1.93.47-2.82a6.741,6.741,0,0,0,2.92,0Zm-6.2.48,3.56,3.57a1.008,1.008,0,0,0,1.42,0l3.56-3.57,1.13.38L18.49,40H15.51L11.6,34.52ZM18.82,46l1.11,6.66L17,55.59l-2.93-2.93L15.18,46Zm-3.31-2,.34-2h2.3l.34,2ZM8,60H5a1,1,0,0,1-1-1V54H8Zm22-1a1,1,0,0,1-1,1H26V54h4Zm0-7H25a1,1,0,0,0-1,1v7H10V53a1,1,0,0,0-1-1H4V42a7.015,7.015,0,0,1,5.55-6.91l4.4,6.15-1.94,11.6a1.011,1.011,0,0,0,.28.87l4,4a1.014,1.014,0,0,0,1.42,0l4-4a1.011,1.011,0,0,0,.28-.87l-1.94-11.6,4.4-6.15A7.015,7.015,0,0,1,30,42Z"/>
      <path id="Trazado_1040367" data-name="Trazado 1040367" d="M46,24h2V22a2,2,0,0,0,2-2V18a2,2,0,0,0-2-2H46V14h4V12H48V10H46v2a2,2,0,0,0-2,2v2a2,2,0,0,0,2,2h2v2H44v2h2Z"/>
    </g>
  </g>
</svg>
